<mxfile host="65bd71144e">
    <diagram id="BXLqIvPAlirHDHdfdHFH" name="Page-1">
        <mxGraphModel dx="724" dy="563" grid="1" gridSize="10" guides="1" tooltips="1" connect="1" arrows="1" fold="1" page="1" pageScale="1" pageWidth="850" pageHeight="1100" math="0" shadow="0">
            <root>
                <mxCell id="0"/>
                <mxCell id="1" parent="0"/>
                <mxCell id="6" value="HTTPS GET /" style="edgeStyle=none;html=1;" edge="1" parent="1" source="2" target="3">
                    <mxGeometry relative="1" as="geometry">
                        <Array as="points">
                            <mxPoint x="220" y="210"/>
                        </Array>
                    </mxGeometry>
                </mxCell>
                <mxCell id="8" value="HTTPS GET&amp;nbsp;/cheeps/page/1" style="edgeStyle=none;html=1;" edge="1" parent="1" source="2" target="3">
                    <mxGeometry relative="1" as="geometry">
                        <Array as="points">
                            <mxPoint x="220" y="250"/>
                        </Array>
                    </mxGeometry>
                </mxCell>
                <mxCell id="2" value="&lt;span style=&quot;background-color: rgb(0, 0, 0);&quot;&gt;&lt;font color=&quot;#ffffff&quot;&gt;User&lt;/font&gt;&lt;/span&gt;" style="shape=umlLifeline;participant=umlActor;perimeter=lifelinePerimeter;whiteSpace=wrap;html=1;container=1;collapsible=0;recursiveResize=0;verticalAlign=top;spacingTop=36;outlineConnect=0;" vertex="1" parent="1">
                    <mxGeometry x="110" y="120" width="20" height="300" as="geometry"/>
                </mxCell>
                <mxCell id="7" value="HTTPS Redirect&amp;nbsp;/cheeps/page/1" style="edgeStyle=none;html=1;" edge="1" parent="1" source="3" target="2">
                    <mxGeometry relative="1" as="geometry">
                        <Array as="points">
                            <mxPoint x="220" y="230"/>
                        </Array>
                    </mxGeometry>
                </mxCell>
                <mxCell id="9" value="Fetch top 32 cheeps" style="edgeStyle=none;html=1;" edge="1" parent="1" source="3" target="4">
                    <mxGeometry relative="1" as="geometry"/>
                </mxCell>
                <mxCell id="3" value="Application" style="shape=umlLifeline;perimeter=lifelinePerimeter;whiteSpace=wrap;html=1;container=1;collapsible=0;recursiveResize=0;outlineConnect=0;" vertex="1" parent="1">
                    <mxGeometry x="270" y="120" width="100" height="300" as="geometry"/>
                </mxCell>
                <mxCell id="11" value="HTTPS Response" style="edgeStyle=none;html=1;" edge="1" parent="3">
                    <mxGeometry relative="1" as="geometry">
                        <mxPoint x="50" y="190" as="sourcePoint"/>
                        <mxPoint x="-150" y="190" as="targetPoint"/>
                        <Array as="points"/>
                    </mxGeometry>
                </mxCell>
                <mxCell id="10" value="Response top 32 cheeps" style="edgeStyle=none;html=1;dashed=1;" edge="1" parent="1" source="4" target="3">
                    <mxGeometry relative="1" as="geometry">
                        <Array as="points">
                            <mxPoint x="420" y="290"/>
                        </Array>
                    </mxGeometry>
                </mxCell>
                <mxCell id="4" value="Database" style="shape=umlLifeline;perimeter=lifelinePerimeter;whiteSpace=wrap;html=1;container=1;collapsible=0;recursiveResize=0;outlineConnect=0;" vertex="1" parent="1">
                    <mxGeometry x="470" y="120" width="100" height="300" as="geometry"/>
                </mxCell>
            </root>
        </mxGraphModel>
    </diagram>
    <diagram id="o0RuO7J_roNP4nql1a8d" name="Page-2">
        <mxGraphModel dx="499" dy="388" grid="1" gridSize="10" guides="1" tooltips="1" connect="1" arrows="1" fold="1" page="1" pageScale="1" pageWidth="850" pageHeight="1100" math="0" shadow="0">
            <root>
                <mxCell id="0"/>
                <mxCell id="1" parent="0"/>
                <mxCell id="xXHIp6myrqmUcdK698Y4-1" value="HTTPS GET /" style="edgeStyle=none;html=1;" edge="1" parent="1" source="xXHIp6myrqmUcdK698Y4-3" target="xXHIp6myrqmUcdK698Y4-6">
                    <mxGeometry relative="1" as="geometry">
                        <Array as="points">
                            <mxPoint x="220" y="210"/>
                        </Array>
                    </mxGeometry>
                </mxCell>
                <mxCell id="xXHIp6myrqmUcdK698Y4-2" value="HTTPS GET&amp;nbsp;/cheeps/page/1" style="edgeStyle=none;html=1;" edge="1" parent="1" source="xXHIp6myrqmUcdK698Y4-3" target="xXHIp6myrqmUcdK698Y4-6">
                    <mxGeometry relative="1" as="geometry">
                        <Array as="points">
                            <mxPoint x="220" y="250"/>
                        </Array>
                    </mxGeometry>
                </mxCell>
                <mxCell id="dBDaGF6UGQcFVGBSJa-R-2" value="HTTPS POST message&amp;nbsp;" style="edgeStyle=none;html=1;" edge="1" parent="1" source="xXHIp6myrqmUcdK698Y4-3" target="xXHIp6myrqmUcdK698Y4-6">
                    <mxGeometry relative="1" as="geometry">
                        <Array as="points">
                            <mxPoint x="240" y="290"/>
                        </Array>
                    </mxGeometry>
                </mxCell>
                <mxCell id="xXHIp6myrqmUcdK698Y4-3" value="&lt;span style=&quot;background-color: rgb(0, 0, 0);&quot;&gt;&lt;font color=&quot;#ffffff&quot;&gt;User&lt;/font&gt;&lt;/span&gt;" style="shape=umlLifeline;participant=umlActor;perimeter=lifelinePerimeter;whiteSpace=wrap;html=1;container=1;collapsible=0;recursiveResize=0;verticalAlign=top;spacingTop=36;outlineConnect=0;" vertex="1" parent="1">
                    <mxGeometry x="110" y="120" width="20" height="300" as="geometry"/>
                </mxCell>
                <mxCell id="xXHIp6myrqmUcdK698Y4-4" value="HTTPS Redirect&amp;nbsp;/cheeps/page/1" style="edgeStyle=none;html=1;" edge="1" parent="1" source="xXHIp6myrqmUcdK698Y4-6" target="xXHIp6myrqmUcdK698Y4-3">
                    <mxGeometry relative="1" as="geometry">
                        <Array as="points">
                            <mxPoint x="220" y="230"/>
                        </Array>
                    </mxGeometry>
                </mxCell>
                <mxCell id="xXHIp6myrqmUcdK698Y4-5" value="Fetch top 32 cheeps" style="edgeStyle=none;html=1;" edge="1" parent="1" source="xXHIp6myrqmUcdK698Y4-6" target="xXHIp6myrqmUcdK698Y4-9">
                    <mxGeometry relative="1" as="geometry">
                        <Array as="points">
                            <mxPoint x="360" y="360"/>
                            <mxPoint x="600" y="360"/>
                        </Array>
                    </mxGeometry>
                </mxCell>
                <mxCell id="dBDaGF6UGQcFVGBSJa-R-4" value="[isUserLogin] insert new Cheep" style="edgeStyle=none;html=1;" edge="1" parent="1" source="xXHIp6myrqmUcdK698Y4-6" target="xXHIp6myrqmUcdK698Y4-9">
                    <mxGeometry relative="1" as="geometry">
                        <Array as="points">
                            <mxPoint x="430" y="340"/>
                        </Array>
                    </mxGeometry>
                </mxCell>
                <mxCell id="xXHIp6myrqmUcdK698Y4-6" value="Application" style="shape=umlLifeline;perimeter=lifelinePerimeter;whiteSpace=wrap;html=1;container=1;collapsible=0;recursiveResize=0;outlineConnect=0;" vertex="1" parent="1">
                    <mxGeometry x="270" y="120" width="100" height="300" as="geometry"/>
                </mxCell>
                <mxCell id="xXHIp6myrqmUcdK698Y4-7" value="HTTPS Response" style="edgeStyle=none;html=1;" edge="1" parent="xXHIp6myrqmUcdK698Y4-6">
                    <mxGeometry relative="1" as="geometry">
                        <mxPoint x="50" y="280" as="sourcePoint"/>
                        <mxPoint x="-150" y="280" as="targetPoint"/>
                        <Array as="points"/>
                    </mxGeometry>
                </mxCell>
                <mxCell id="xXHIp6myrqmUcdK698Y4-8" value="Response top 32 cheeps" style="edgeStyle=none;html=1;dashed=1;" edge="1" parent="1" source="xXHIp6myrqmUcdK698Y4-9" target="xXHIp6myrqmUcdK698Y4-6">
                    <mxGeometry x="0.0301" relative="1" as="geometry">
                        <Array as="points">
                            <mxPoint x="470" y="390"/>
                            <mxPoint x="370" y="390"/>
                        </Array>
                        <mxPoint as="offset"/>
                    </mxGeometry>
                </mxCell>
                <mxCell id="xXHIp6myrqmUcdK698Y4-9" value="Database" style="shape=umlLifeline;perimeter=lifelinePerimeter;whiteSpace=wrap;html=1;container=1;collapsible=0;recursiveResize=0;outlineConnect=0;" vertex="1" parent="1">
                    <mxGeometry x="580" y="120" width="100" height="300" as="geometry"/>
                </mxCell>
                <mxCell id="dBDaGF6UGQcFVGBSJa-R-3" value="isUserLogin =&amp;nbsp; &amp;nbsp;User.Identity.IsAuthenticated" style="edgeStyle=none;html=1;" edge="1" parent="1" source="xXHIp6myrqmUcdK698Y4-6" target="xXHIp6myrqmUcdK698Y4-6">
                    <mxGeometry y="120" relative="1" as="geometry">
                        <Array as="points">
                            <mxPoint x="370" y="300"/>
                            <mxPoint x="370" y="310"/>
                            <mxPoint x="370" y="320"/>
                            <mxPoint x="350" y="320"/>
                        </Array>
                        <mxPoint as="offset"/>
                    </mxGeometry>
                </mxCell>
            </root>
        </mxGraphModel>
    </diagram>
    <diagram id="8RC3o7TWGqxI1lr9Yw8d" name="Page-3">
        <mxGraphModel dx="1574" dy="563" grid="1" gridSize="10" guides="1" tooltips="1" connect="1" arrows="1" fold="1" page="1" pageScale="1" pageWidth="850" pageHeight="1100" math="0" shadow="0">
            <root>
                <mxCell id="0"/>
                <mxCell id="1" parent="0"/>
                <mxCell id="lU3PuIltkp3EhtBVFQp6-1" value="HTTPS GET&amp;nbsp;/[username]/AboutMe?handler=DownloadUserInfo" style="edgeStyle=none;html=1;" edge="1" parent="1" source="lU3PuIltkp3EhtBVFQp6-4" target="lU3PuIltkp3EhtBVFQp6-8">
                    <mxGeometry relative="1" as="geometry">
                        <Array as="points">
                            <mxPoint x="220" y="210"/>
                        </Array>
                    </mxGeometry>
                </mxCell>
                <mxCell id="lU3PuIltkp3EhtBVFQp6-4" value="&lt;span style=&quot;background-color: rgb(0, 0, 0);&quot;&gt;&lt;font color=&quot;#ffffff&quot;&gt;User&lt;/font&gt;&lt;/span&gt;" style="shape=umlLifeline;participant=umlActor;perimeter=lifelinePerimeter;whiteSpace=wrap;html=1;container=1;collapsible=0;recursiveResize=0;verticalAlign=top;spacingTop=36;outlineConnect=0;" vertex="1" parent="1">
                    <mxGeometry x="-100" y="120" width="20" height="300" as="geometry"/>
                </mxCell>
                <mxCell id="lU3PuIltkp3EhtBVFQp6-6" value="Fecth all user data" style="edgeStyle=none;html=1;" edge="1" parent="1" source="lU3PuIltkp3EhtBVFQp6-8" target="lU3PuIltkp3EhtBVFQp6-11">
                    <mxGeometry relative="1" as="geometry">
                        <Array as="points">
                            <mxPoint x="360" y="360"/>
                            <mxPoint x="600" y="360"/>
                        </Array>
                    </mxGeometry>
                </mxCell>
                <mxCell id="lU3PuIltkp3EhtBVFQp6-14" value="&lt;span style=&quot;color: rgb(240, 240, 240);&quot;&gt;HTTPS Response [username]_Chirp_UserData.txt&lt;/span&gt;" style="edgeStyle=none;html=1;fontColor=#FFFFFF;" edge="1" parent="1" source="lU3PuIltkp3EhtBVFQp6-8" target="lU3PuIltkp3EhtBVFQp6-4">
                    <mxGeometry relative="1" as="geometry">
                        <Array as="points">
                            <mxPoint x="-60" y="400"/>
                        </Array>
                    </mxGeometry>
                </mxCell>
                <mxCell id="lU3PuIltkp3EhtBVFQp6-8" value="Application" style="shape=umlLifeline;perimeter=lifelinePerimeter;whiteSpace=wrap;html=1;container=1;collapsible=0;recursiveResize=0;outlineConnect=0;" vertex="1" parent="1">
                    <mxGeometry x="270" y="120" width="100" height="300" as="geometry"/>
                </mxCell>
                <mxCell id="lU3PuIltkp3EhtBVFQp6-10" value="Response all user data" style="edgeStyle=none;html=1;dashed=1;" edge="1" parent="1" source="lU3PuIltkp3EhtBVFQp6-11" target="lU3PuIltkp3EhtBVFQp6-8">
                    <mxGeometry x="0.0301" relative="1" as="geometry">
                        <Array as="points">
                            <mxPoint x="470" y="390"/>
                            <mxPoint x="370" y="390"/>
                        </Array>
                        <mxPoint as="offset"/>
                    </mxGeometry>
                </mxCell>
                <mxCell id="lU3PuIltkp3EhtBVFQp6-11" value="Database" style="shape=umlLifeline;perimeter=lifelinePerimeter;whiteSpace=wrap;html=1;container=1;collapsible=0;recursiveResize=0;outlineConnect=0;" vertex="1" parent="1">
                    <mxGeometry x="580" y="120" width="100" height="300" as="geometry"/>
                </mxCell>
                <mxCell id="lU3PuIltkp3EhtBVFQp6-12" value="isUserLogin =&amp;nbsp; &amp;nbsp;User.Identity.IsAuthenticated" style="edgeStyle=none;html=1;" edge="1" parent="1" source="lU3PuIltkp3EhtBVFQp6-8" target="lU3PuIltkp3EhtBVFQp6-8">
                    <mxGeometry y="120" relative="1" as="geometry">
                        <Array as="points">
                            <mxPoint x="370" y="300"/>
                            <mxPoint x="370" y="310"/>
                            <mxPoint x="370" y="320"/>
                            <mxPoint x="350" y="320"/>
                        </Array>
                        <mxPoint as="offset"/>
                    </mxGeometry>
                </mxCell>
            </root>
        </mxGraphModel>
    </diagram>
</mxfile>